# Blender v2.79 (sub 0) OBJ File: 'taichi.blend'
# www.blender.org
mtllib tc1.mtl
o Plane
v -2.605382 10.713497 0.647980
v 9.253853 15.452641 -1.357828
v -4.430973 12.382484 -6.202392
v 7.428262 17.121628 -8.208200
v -2.588898 10.665430 0.631876
v 9.270336 15.404574 -1.373932
v -4.414488 12.334418 -6.218495
v 7.444746 17.073563 -8.224303
v -1.835501 7.424990 2.429278
v 10.023734 12.164134 0.423470
v -3.661091 9.093978 -4.421093
v 8.198143 13.833121 -6.426901
v -1.819016 7.376924 2.413174
v 10.040218 12.116067 0.407366
v -3.644607 9.045911 -4.437197
v 8.214628 13.785055 -6.443005
v -1.065619 4.136482 4.210577
v 10.793615 8.875627 2.204769
v -2.891209 5.805470 -2.639795
v 8.968025 10.544615 -4.645603
v -1.049135 4.088417 4.194473
v 10.810101 8.827560 2.188665
v -2.874725 5.757404 -2.655899
v 8.984510 10.496548 -4.661707
v -0.295737 0.847977 5.991874
v 11.563498 5.587120 3.986066
v -2.121327 2.516964 -0.858497
v 9.737907 7.256108 -2.864305
v -0.279253 0.799910 5.975770
v 11.579982 5.539053 3.969963
v -2.104843 2.468897 -0.874600
v 9.754392 7.208041 -2.880409
v 0.474144 -2.440531 7.773173
v 12.333380 2.298613 5.767365
v -1.351446 -0.771544 0.922801
v 10.507789 3.967601 -1.083007
v 0.490628 -2.488598 7.757069
v 12.349864 2.250546 5.751261
v -1.334962 -0.819610 0.906698
v 10.524273 3.919535 -1.099110
v 1.244026 -5.729036 9.554472
v 13.103261 -0.989894 7.548664
v -0.581565 -4.060049 2.704100
v 11.277670 0.679094 0.698292
v 1.260510 -5.777105 9.538368
v 13.119745 -1.037961 7.532560
v -0.565081 -4.108116 2.687996
v 11.294155 0.631027 0.682188
v 2.013907 -9.017544 11.335770
v 13.873142 -4.278400 9.329962
v 0.188317 -7.348555 4.485398
v 12.047552 -2.609411 2.479590
v 2.030392 -9.065611 11.319666
v 13.889627 -4.326468 9.313858
v 0.204802 -7.396624 4.469294
v 12.064036 -2.657478 2.463486
vn -0.3092 0.9017 0.3021
vn 0.3092 -0.9017 -0.3021
vn -0.9174 -0.3666 0.1552
vn 0.2506 -0.2291 0.9406
vn 0.9174 0.3666 -0.1552
vn -0.2507 0.2292 -0.9406
vn 0.2507 -0.2292 0.9406
vn 0.2506 -0.2292 0.9406
vn -0.2507 0.2291 -0.9406
usemtl Material.002
s off
f 1//1 2//1 4//1 3//1
f 5//2 7//2 8//2 6//2
f 1//3 3//3 7//3 5//3
f 2//4 1//4 5//4 6//4
f 4//5 2//5 6//5 8//5
f 3//6 4//6 8//6 7//6
f 9//1 10//1 12//1 11//1
f 13//2 15//2 16//2 14//2
f 9//3 11//3 15//3 13//3
f 10//7 9//7 13//7 14//7
f 12//5 10//5 14//5 16//5
f 11//6 12//6 16//6 15//6
f 17//1 18//1 20//1 19//1
f 21//2 23//2 24//2 22//2
f 17//3 19//3 23//3 21//3
f 18//7 17//7 21//7 22//7
f 20//5 18//5 22//5 24//5
f 19//6 20//6 24//6 23//6
f 25//1 26//1 28//1 27//1
f 29//2 31//2 32//2 30//2
f 25//3 27//3 31//3 29//3
f 26//7 25//7 29//7 30//7
f 28//5 26//5 30//5 32//5
f 27//6 28//6 32//6 31//6
f 33//1 34//1 36//1 35//1
f 37//2 39//2 40//2 38//2
f 33//3 35//3 39//3 37//3
f 34//8 33//8 37//8 38//8
f 36//5 34//5 38//5 40//5
f 35//6 36//6 40//6 39//6
f 41//1 42//1 44//1 43//1
f 45//2 47//2 48//2 46//2
f 41//3 43//3 47//3 45//3
f 42//7 41//7 45//7 46//7
f 44//5 42//5 46//5 48//5
f 43//6 44//6 48//6 47//6
f 49//1 50//1 52//1 51//1
f 53//2 55//2 56//2 54//2
f 49//3 51//3 55//3 53//3
f 50//7 49//7 53//7 54//7
f 52//5 50//5 54//5 56//5
f 51//9 52//9 56//9 55//9
