# Blender v2.79 (sub 0) OBJ File: 'taichi.blend'
# www.blender.org
mtllib tc6.mtl
o Plane.001
v -43.259342 15.900289 20.499765
v -32.107746 43.899651 10.198906
v -57.713207 19.766171 15.360249
v -46.561611 47.765533 5.059389
v -43.210701 15.803921 20.290482
v -32.059105 43.803284 9.989622
v -57.664566 19.669802 15.150965
v -46.512966 47.669167 4.850105
v -36.292927 8.010206 12.503842
v -25.141331 36.009567 2.202983
v -50.746788 11.876085 7.364326
v -39.595192 39.875450 -2.936534
v -36.244286 7.913837 12.294559
v -25.092688 35.913200 1.993699
v -50.698147 11.779718 7.155042
v -39.546551 39.779079 -3.145818
v -29.326509 0.120121 4.507919
v -18.174913 28.119484 -5.792940
v -43.780373 3.986002 -0.631598
v -32.628777 31.985365 -10.932457
v -29.277868 0.023752 4.298635
v -18.126272 28.023117 -6.002224
v -43.731731 3.889635 -0.840881
v -32.580132 31.888996 -11.141741
v -22.360092 -7.769964 -3.488003
v -11.208496 20.229401 -13.788862
v -36.813957 -3.904081 -8.627520
v -25.662359 24.095280 -18.928379
v -22.311451 -7.866331 -3.697287
v -11.159855 20.133032 -13.998146
v -36.765312 -4.000448 -8.836802
v -25.613716 23.998913 -19.137663
v -15.393677 -15.660048 -11.483927
v -4.242081 12.339317 -21.784784
v -29.847538 -11.794165 -16.623444
v -18.695942 16.205198 -26.924303
v -15.345032 -15.756414 -11.693213
v -4.193436 12.242949 -21.994070
v -29.798897 -11.890532 -16.832729
v -18.647301 16.108829 -27.133589
v -8.427254 -23.550131 -19.479849
v 2.724342 4.449234 -29.780706
v -22.881123 -19.684248 -24.619364
v -11.729527 8.315115 -34.920227
v -8.378613 -23.646498 -19.689131
v 2.772984 4.352863 -29.989988
v -22.832478 -19.780619 -24.828646
v -11.680885 8.218744 -35.129509
v -1.460846 -31.440214 -27.475767
v 9.690750 -3.440851 -37.776627
v -15.914707 -27.574331 -32.615280
v -4.763107 0.425032 -42.916145
v -1.412201 -31.536581 -27.685053
v 9.739395 -3.537218 -37.985909
v -15.866064 -27.670702 -32.824570
v -4.714466 0.328663 -43.125427
vn -0.2066 0.4092 0.8887
vn 0.2066 -0.4092 -0.8887
vn -0.3501 -0.8791 0.3234
vn 0.9136 -0.2444 0.3249
vn 0.3501 0.8791 -0.3234
vn -0.9136 0.2444 -0.3249
usemtl Material.002
s off
f 1//1 2//1 4//1 3//1
f 5//2 7//2 8//2 6//2
f 1//3 3//3 7//3 5//3
f 2//4 1//4 5//4 6//4
f 4//5 2//5 6//5 8//5
f 3//6 4//6 8//6 7//6
f 9//1 10//1 12//1 11//1
f 13//2 15//2 16//2 14//2
f 9//3 11//3 15//3 13//3
f 10//4 9//4 13//4 14//4
f 12//5 10//5 14//5 16//5
f 11//6 12//6 16//6 15//6
f 17//1 18//1 20//1 19//1
f 21//2 23//2 24//2 22//2
f 17//3 19//3 23//3 21//3
f 18//4 17//4 21//4 22//4
f 20//5 18//5 22//5 24//5
f 19//6 20//6 24//6 23//6
f 25//1 26//1 28//1 27//1
f 29//2 31//2 32//2 30//2
f 25//3 27//3 31//3 29//3
f 26//4 25//4 29//4 30//4
f 28//5 26//5 30//5 32//5
f 27//6 28//6 32//6 31//6
f 33//1 34//1 36//1 35//1
f 37//2 39//2 40//2 38//2
f 33//3 35//3 39//3 37//3
f 34//4 33//4 37//4 38//4
f 36//5 34//5 38//5 40//5
f 35//6 36//6 40//6 39//6
f 41//1 42//1 44//1 43//1
f 45//2 47//2 48//2 46//2
f 41//3 43//3 47//3 45//3
f 42//4 41//4 45//4 46//4
f 44//5 42//5 46//5 48//5
f 43//6 44//6 48//6 47//6
f 49//1 50//1 52//1 51//1
f 53//2 55//2 56//2 54//2
f 49//3 51//3 55//3 53//3
f 50//4 49//4 53//4 54//4
f 52//5 50//5 54//5 56//5
f 51//6 52//6 56//6 55//6
